<?xml version="1.0" encoding="UTF-8" standalone="no"?>
<svg xmlns="http://www.w3.org/2000/svg" xmlns:svg="http://www.w3.org/2000/svg" xmlns:xlink="http://www.w3.org/1999/xlink" version="1.1" width="80" height="80" id="svg_icon_template">
  <defs id="backgroundDefs">
    <linearGradient id="lightLinearGradient">
      <stop id="llgStop1" style="stop-color:#6c7a8b;stop-opacity:1" offset="0"/>
      <stop id="llgStop2" style="stop-color:#000c1d;stop-opacity:1" offset="1"/>
    </linearGradient>
    <linearGradient x1="40" y1="0" x2="40" y2="79" id="lightLinearGradientWrap" xlink:href="#lightLinearGradient" gradientUnits="userSpaceOnUse" gradientTransform="translate(0, 972.801)"/>
  </defs>
  <g transform="translate(0, -972.362)" id="backgroundLayer">
    <path d="m 39.875,973.30135 c 39.875,-0.45834 37.75,21.83333 39,39.12495 -1.083333,19.375 0.833333,39.375 -38.875,39 -39.08333333,0.4167 -38.0416667,-18.6666 -38.875,-38.5 1.2916667,-18.58329 -0.91666667,-40.16662 38.75,-39.62495 z" id="path3052" style="fill:url(#lightLinearGradientWrap);fill-opacity:1;stroke:none"/>
  </g>
<g transform="translate(13, 13) scale(0.108)">
  <defs xmlns="http://www.w3.org/2000/svg" xmlns:xlink="http://www.w3.org/1999/xlink" id="defs4">
    <linearGradient id="linearGradient3897">
      <stop id="stop3899" style="stop-color:#4f220c;stop-opacity:0.80239522" offset="0"/>
      <stop id="stop3901" style="stop-color:#ffffff;stop-opacity:0" offset="1"/>
    </linearGradient>
    <linearGradient id="linearGradient3753">
      <stop id="stop3755" style="stop-color:#b7ceee;stop-opacity:1" offset="0"/>
      <stop id="stop3757" style="stop-color:#ffffff;stop-opacity:0" offset="1"/>
    </linearGradient>
    <linearGradient x1="69" y1="32.372826" x2="88.230774" y2="109.62469" id="linearGradient3765" xlink:href="#linearGradient3753" gradientUnits="userSpaceOnUse" gradientTransform="matrix(3.49509, 0, 0, 3.49509, -14.2202, -375.161)"/>
    <linearGradient x1="116.2619" y1="56.380951" x2="104.30952" y2="46.857143" id="linearGradient3903" xlink:href="#linearGradient3897" gradientUnits="userSpaceOnUse"/>
    <filter color-interpolation-filters="sRGB" id="filter3925">
      <feGaussianBlur id="feGaussianBlur3927" stdDeviation="0.79619043"/>
    </filter>
  </defs>
  <g xmlns="http://www.w3.org/2000/svg" transform="translate(0, 350)" id="layer2" style="display:inline">
    <path d="m 350.28784,-276.93704 110.67788,37.28098 c 18.07099,2.78565 22.30819,16.63831 9.32023,44.27117 L 391.06392,93.54254 c -14.56475,32.22509 -44.4388,46.0236 -68.22638,41.35766 L 76.578977,83.929296 C 56.813673,80.349974 45.880027,63.226965 47.96365,38.129417 84.33019,-63.297255 121.88008,-187.06644 169.70815,-282.76217 c 11.0999,-16.31883 26.59401,-27.1449 50.0963,-27.96073 l 130.48339,33.78586 z" id="path2910" style="fill:#000000;fill-opacity:0.21568627;stroke:none"/>
    <path d="m 316.157,-305.73585 110.67787,37.28098 c 18.07098,2.78566 22.30819,16.63831 9.32022,44.27116 L 356.93306,64.743694 c -14.56474,32.225084 -36.794,33.791936 -60.58159,29.125993 L 47.035014,36.782968 C 27.269717,33.203646 23.980837,17.6096 26.06447,-7.4879127 62.431028,-108.9146 87.749257,-215.86525 135.5773,-311.56097 c 11.09992,-16.31882 26.59404,-27.1449 50.09633,-27.96072 l 130.48337,33.78584 z" id="path2910-3" style="fill:#ffffff;fill-opacity:1;stroke:none;display:inline"/>
    <path d="m 322.57521,-295.25057 110.67783,37.28098 c 18.07098,2.78566 22.30819,16.63831 9.32023,44.27116 L 363.35124,75.229001 c -14.56475,32.225089 -36.794,33.791929 -60.58155,29.125989 L 53.453217,47.268276 C 33.68792,43.688953 30.399039,28.094907 32.482673,2.997359 68.849197,-98.429325 94.167459,-205.37997 141.99551,-301.07569 c 8.97225,-17.38266 26.59401,-27.14491 50.09631,-27.96073 l 130.48339,33.78585 z" id="path2910-3-0" style="fill:none;stroke:#303e4f;stroke-width:25;stroke-linecap:round;stroke-linejoin:round;stroke-miterlimit:4;stroke-opacity:1;stroke-dasharray:none;display:inline"/>
    <path d="M 72.107511,-27.166781 152.37915,-268.15313 c 1.26708,0.1124 4.87679,-34.86501 58.25152,-33.61093 L 387.71526,-245.84262 303.83309,36.094681 72.107511,-27.166781 z" id="path3751" style="fill:url(#linearGradient3765);fill-opacity:1;stroke:none"/>
    <path d="m 173.3497,-263.31807 191.06495,53.59139" id="path3769" style="fill:none;stroke:#3e4e68;stroke-width:6.99018145;stroke-linecap:round;stroke-linejoin:round;stroke-miterlimit:4;stroke-opacity:1;stroke-dasharray:none"/>
    <path d="M 102.28285,-52.447596 304.99812,4.6388637" id="path3771" style="fill:none;stroke:#3e4e68;stroke-width:6.99018145;stroke-linecap:round;stroke-linejoin:round;stroke-miterlimit:4;stroke-opacity:1;stroke-dasharray:none"/>
    <path d="m 117.42825,-99.631313 202.71526,57.086487" id="path3771-8" style="fill:none;stroke:#3e4e68;stroke-width:6.99018145;stroke-linecap:round;stroke-linejoin:round;stroke-miterlimit:4;stroke-opacity:1;stroke-dasharray:none;display:inline"/>
    <path d="M 129.07855,-139.24235 331.7938,-82.155878" id="path3771-8-4" style="fill:none;stroke:#3e4e68;stroke-width:6.99018145;stroke-linecap:round;stroke-linejoin:round;stroke-miterlimit:4;stroke-opacity:1;stroke-dasharray:none;display:inline"/>
    <path d="m 228.98064,-41.336258 c 30.92081,-10.927822 90.45013,-3.700215 145.10926,-52.012965 l 95.33573,-144.768827 c 0.96269,-51.4283 -24.82339,-47.45964 -45.43618,-46.6012 L 302.82629,-120.45 c -32.24833,62.797477 -55.65444,52.864841 -73.84565,79.113742 z" id="path3861-0-2" style="fill:#000000;fill-opacity:0.31372549;stroke:none;display:inline"/>
    <path d="m 145.38898,-174.19325 202.71527,57.08647" id="path3771-8-4-7" style="fill:none;stroke:#3e4e68;stroke-width:6.99018145;stroke-linecap:round;stroke-linejoin:round;stroke-miterlimit:4;stroke-opacity:1;stroke-dasharray:none;display:inline"/>
    <path d="m 158.2043,-226.61962 202.71526,57.08648" id="path3771-8-4-7-1" style="fill:none;stroke:#3e4e68;stroke-width:6.99018145;stroke-linecap:round;stroke-linejoin:round;stroke-miterlimit:4;stroke-opacity:1;stroke-dasharray:none;display:inline"/>
    <path d="m 215.29079,-51.282564 c 45.63474,-17.009886 104.27655,-37.73563 139.80364,-74.561936 l 87.37727,-137.47357 c -2.58864,-53.20395 -24.82626,-47.46108 -45.43619,-46.60121 l -121.16315,164.26927 c -32.24834,62.797466 -42.39037,68.118546 -60.58157,94.367446 z" id="path3861" style="fill:#fec031;fill-opacity:1;stroke:#000000;stroke-width:10.48527241;stroke-linecap:round;stroke-linejoin:round;stroke-miterlimit:4;stroke-opacity:1;stroke-dasharray:none"/>
    <path d="m 375.89854,-270.30825 c 24.3309,-0.1087 37.85229,15.22477 49.92985,32.62085 l 17.97476,-27.96073 c -3.73489,-30.17578 -16.3068,-47.39062 -46.60119,-38.61243 l -21.30342,33.95231 z" id="path3929" style="fill:#be6e6d;fill-opacity:1;stroke:none"/>
    <path d="m 386.55025,-278.29702 c 3.78857,4.7739 7.23319,5.1381 11.66189,5.41196 l 14.1294,-16.90163 c 3.65733,-7.29215 -1.79561,-9.78028 -10.47948,-7.81655 l -15.31181,19.30622 z" id="path3933" style="fill:#ffffff;fill-opacity:0.78632477;stroke:none"/>
    <path d="m 415.17668,-251.00203 25.29782,-33.28658 4.66011,19.30621 -19.30622,26.62926 -4.66011,5.99159 c 0.16392,-8.37469 -2.64593,-13.77546 -5.9916,-18.64048 z" id="path3931" style="fill:#000000;fill-opacity:0.37606835;stroke:none"/>
    <path d="M 93.800623,81.3498 C 109.562,70.065736 117.99631,54.362774 125.22919,39.566978 123.38792,35.790131 121.07937,34.356744 119.2381,33.047619 L 91.809524,75.904762 93.800623,81.3498 z" transform="matrix(3.49509, 0, 0, 3.49509, -14.2202, -375.161)" id="path3895" style="fill:url(#linearGradient3903);fill-opacity:1;stroke:none;filter:url(#filter3925)"/>
    <path d="m 271.21224,-133.99971 c 21.35362,0.62873 36.64128,19.05914 42.46916,41.423901 l -87.90533,35.468093 45.43617,-76.891994 z" id="path3865" style="fill:#ebdbba;fill-opacity:1;stroke:none"/>
    <path d="m 272.55926,-94.705993 c 13.50339,-6.721587 23.1114,-12.052307 27.96073,-23.966337 5.01705,7.32305 9.19507,19.545752 10.69602,26.868799 l -28.99042,14.193463 c 0.51086,-5.509046 -3.19724,-13.33187 -9.66633,-17.095925 z" id="path3869" style="fill:#642f11;fill-opacity:0.68803418;stroke:none"/>
    <path d="m 249.07666,-103.70892 c 16.59621,0.12306 34.20264,6.138388 35.47899,24.645285 0,0 -71.59492,25.45101 -64.60474,25.45101 6.99018,0 26.79569,-47.766245 29.12575,-50.096295 z" id="path3867" style="fill:#587094;fill-opacity:1;stroke:none"/>
    <path d="m 370.23981,-270.30825 c 25.656,4.24643 46.4751,13.32976 53.59138,36.11593 l 0,0" id="path3863" style="fill:none;stroke:#000000;stroke-width:5.2426362;stroke-linecap:round;stroke-linejoin:round;stroke-miterlimit:4;stroke-opacity:1;stroke-dasharray:none"/>
    <path d="m 217.03833,-52.148891 c 36.31904,-9.551566 88.2748,-26.637743 139.80361,-74.561939 L 444.2192,-264.1844 c 0.96269,-51.4283 -24.82339,-47.45964 -45.43617,-46.6012 l -121.16314,164.26925 c -32.24834,62.797479 -42.39035,68.118558 -60.58156,94.367459 z" id="path3861-0" style="fill:none;stroke:#000000;stroke-width:10.48527241;stroke-linecap:round;stroke-linejoin:round;stroke-miterlimit:4;stroke-opacity:1;stroke-dasharray:none;display:inline"/>
    <path d="m 294.67928,-139.82486 5.32585,5.99158 c 12.60299,-18.9049 -6.5795,1.03912 48.59842,-69.90182 14.15177,-17.6067 25.20912,-39.85499 42.60681,-52.59279 l -12.64892,-9.32024 c -23.00039,46.99285 -29.80777,52.60362 -37.28094,59.91584 -32.55139,46.47221 -37.28098,41.27536 -55.92146,61.91305 l 9.32024,3.99438 z" id="path3893" style="fill:#ffffff;fill-opacity:0.91025636;stroke:none"/>
    <path d="m 273.37838,-134.98326 c 22.39557,3.53562 35.16392,24.77956 38.89361,43.477305" id="path3935" style="fill:none;stroke:#000000;stroke-width:3.49509072px;stroke-linecap:butt;stroke-linejoin:miter;stroke-opacity:1"/>
    <path d="m 279.90357,-313.66593 12.61902,3.82394 -0.38237,-13.76622 c -11.14035,-29.49426 -39.34148,-21.21029 -52.00573,-9.17748 -19.83075,23.52997 -12.74536,46.39899 -13.00143,47.03459 3.58518,13.97266 13.39867,21.49705 21.03173,23.3261 l 13.00142,0 c 4.42192,-3.81411 3.32922,-6.24957 -0.3824,-8.03029 -19.72728,-2.45678 -19.77001,-9.28791 -21.79651,-15.67821 -3.53363,-8.6965 -2.74794,-17.45275 0.7648,-27.15004 3.43571,-6.22205 7.13007,-12.83403 12.61903,-14.91341 11.47851,-4.1533 19.25295,-3.02584 26.76765,6.50072 l 0.76479,8.0303 z" id="path3937-8" style="fill:#a5a5a5;fill-opacity:1;stroke:#000000;stroke-width:3.49509072px;stroke-linecap:butt;stroke-linejoin:miter;stroke-opacity:0.74509804;display:inline"/>
    <path d="m 335.09333,-298.77975 13.7662,4.58874 -0.76475,-19.11976 c -11.14036,-29.49426 -39.3415,-21.21029 -52.00575,-9.17747 -19.83076,23.52997 -12.74536,46.39899 -13.00143,47.03458 3.58519,13.97267 13.39868,21.49704 21.03173,23.3261 l 13.00143,0 c 4.42191,-3.8141 3.32921,-6.24956 -0.3824,-8.03029 -19.7273,-2.45678 -19.77001,-9.2879 -21.79651,-15.6782 -3.53365,-8.6965 -2.74795,-17.45277 0.76479,-27.15004 3.4357,-6.22206 7.13008,-12.83404 12.61904,-14.91341 11.47851,-4.15331 19.25296,-3.02584 26.76765,6.50072 l 0,12.61903 z" id="path3937" style="fill:#a5a5a5;fill-opacity:1;stroke:#000000;stroke-width:3.49509072px;stroke-linecap:butt;stroke-linejoin:miter;stroke-opacity:0.74509804"/>
  </g>
</g></svg>